<?xml version="1.0" encoding="utf-8"?>
<!-- Generator: Adobe Illustrator 25.2.0, SVG Export Plug-In . SVG Version: 6.00 Build 0)  -->
<svg version="1.1" id="Camada_1" xmlns="http://www.w3.org/2000/svg" xmlns:xlink="http://www.w3.org/1999/xlink" x="0px" y="0px"
	 viewBox="0 0 1024 1024" style="enable-background:new 0 0 1024 1024;" xml:space="preserve">
<style type="text/css">
	.st0{fill:url(#SVGID_1_);}
	.st1{fill:#FFFFFF;}
	.st2{fill:none;stroke:#FFFFFF;stroke-width:9;stroke-miterlimit:10;}
	.st3{stroke:#000000;stroke-miterlimit:10;}
	.st4{font-family:'Poppins-Regular';}
	.st5{font-size:94.0932px;}
</style>
<linearGradient id="SVGID_1_" gradientUnits="userSpaceOnUse" x1="-621.3168" y1="991.3473" x2="128.6966" y2="991.3473" gradientTransform="matrix(-0.6332 -0.774 0.774 -0.6332 -411.2333 893.1251)">
	<stop  offset="0" style="stop-color:#6B3982"/>
	<stop  offset="0.5056" style="stop-color:#933D7E"/>
	<stop  offset="1" style="stop-color:#AB3E77"/>
</linearGradient>
<circle class="st0" cx="512" cy="456" r="375.01"/>
<circle class="st1" cx="446.29" cy="229.06" r="28.13"/>
<circle class="st1" cx="296.28" cy="544.06" r="28.13"/>
<circle class="st1" cx="566.29" cy="686.57" r="28.13"/>
<circle class="st1" cx="731.29" cy="559.06" r="28.13"/>
<circle class="st1" cx="723.79" cy="285.31" r="28.13"/>
<line class="st2" x1="298.16" y1="545.94" x2="448.16" y2="230.93"/>
<line class="st2" x1="725.67" y1="287.18" x2="463.16" y2="230.93"/>
<line class="st2" x1="568.16" y1="688.44" x2="733.17" y2="560.94"/>
<line class="st2" x1="298.16" y1="545.94" x2="568.16" y2="688.44"/>
<line class="st2" x1="725.67" y1="560.94" x2="298.16" y2="545.94"/>
<line class="st2" x1="448.16" y1="234.68" x2="568.16" y2="688.44"/>
<line class="st2" x1="298.16" y1="545.94" x2="725.67" y2="287.18"/>
<line class="st2" x1="725.67" y1="560.94" x2="725.67" y2="287.18"/>
<text transform="matrix(1 0 0 1 271.0303 970.002)" class="st3 st4 st5">CALICOMP</text>
</svg>
