<?xml version="1.0" encoding="utf-8"?>
<!-- Generator: Adobe Illustrator 25.2.0, SVG Export Plug-In . SVG Version: 6.00 Build 0)  -->
<svg version="1.1" id="Camada_1" xmlns="http://www.w3.org/2000/svg" xmlns:xlink="http://www.w3.org/1999/xlink" x="0px" y="0px"
	 viewBox="0 0 1024 1024" style="enable-background:new 0 0 1024 1024;" xml:space="preserve">
<style type="text/css">
	.st0{fill:url(#SVGID_1_);stroke:#000000;stroke-width:3;stroke-miterlimit:10;}
	.st1{fill:none;stroke:#FFFFFF;stroke-width:8;stroke-miterlimit:10;}
	.st2{fill:#FFFFFF;stroke:#FFFFFF;stroke-width:3;stroke-miterlimit:10;}
	.st3{stroke:#000000;stroke-miterlimit:10;}
	.st4{font-family:'Poppins-Regular';}
	.st5{font-size:94.09px;}
</style>
<linearGradient id="SVGID_1_" gradientUnits="userSpaceOnUse" x1="511.5761" y1="628.718" x2="513.5238" y2="-145.7961">
	<stop  offset="0" style="stop-color:#52ABE2"/>
	<stop  offset="0.1034" style="stop-color:#4FA8DF"/>
	<stop  offset="0.5273" style="stop-color:#2482BC"/>
	<stop  offset="1" style="stop-color:#0F74BC"/>
</linearGradient>
<circle class="st0" cx="512.01" cy="454.84" r="375.01"/>
<line class="st1" x1="509.28" y1="450.74" x2="509.28" y2="595.81"/>
<line class="st1" x1="648.88" y1="371.36" x2="509.28" y2="453.48"/>
<line class="st1" x1="371.24" y1="373.31" x2="510.84" y2="455.43"/>
<polygon class="st2" points="498.33,703.94 272.56,593.05 271.13,323.46 361.46,378.2 363.77,536.46 498.33,602.66 "/>
<polygon class="st2" points="519.46,704.3 745.23,593.42 746.66,323.82 656.33,378.56 654.02,536.82 519.46,603.02 "/>
<polygon class="st2" points="736.47,304.29 509.28,183.85 276.61,304.29 369.68,359.04 506.54,285.13 643.4,359.04 "/>
<text transform="matrix(1 0 0 1 303.922 970.0045)" class="st3 st4 st5">SofTeam</text>
</svg>
