<svg width="226" height="290" viewBox="0 0 226 290" fill="none" xmlns="http://www.w3.org/2000/svg">
<path d="M215.45 0.72998H10.97C5.44712 0.72998 0.969971 5.20713 0.969971 10.73V278.54C0.969971 284.063 5.44712 288.54 10.97 288.54H215.45C220.973 288.54 225.45 284.063 225.45 278.54V10.73C225.45 5.20713 220.973 0.72998 215.45 0.72998Z" fill="url(#paint0_linear_1_17)"/>
<path d="M215.45 0.72998H10.97C5.44712 0.72998 0.969971 5.20713 0.969971 10.73V278.54C0.969971 284.063 5.44712 288.54 10.97 288.54H215.45C220.973 288.54 225.45 284.063 225.45 278.54V10.73C225.45 5.20713 220.973 0.72998 215.45 0.72998Z" stroke="black" stroke-miterlimit="10"/>
<path d="M113.52 187.35C146.845 187.35 173.86 160.335 173.86 127.01C173.86 93.6851 146.845 66.67 113.52 66.67C80.1951 66.67 53.18 93.6851 53.18 127.01C53.18 160.335 80.1951 187.35 113.52 187.35Z" fill="#B3B3B3" stroke="black" stroke-miterlimit="10"/>
<path d="M20.66 288.65C20.66 288.65 36.61 213 63.81 179.22C63.81 179.22 109.14 220.49 161.98 179.22C161.98 179.22 186.36 219.22 202.93 288.34" fill="#B3B3B3"/>
<path d="M20.66 288.65C20.66 288.65 36.61 213 63.81 179.22C63.81 179.22 109.14 220.49 161.98 179.22C161.98 179.22 186.36 219.22 202.93 288.34" stroke="black" stroke-miterlimit="10"/>
<defs>
<linearGradient id="paint0_linear_1_17" x1="111.41" y1="39.19" x2="115.23" y2="263.37" gradientUnits="userSpaceOnUse">
<stop offset="0.25" stop-color="#999999"/>
<stop offset="0.65" stop-color="#333333"/>
<stop offset="0.99"/>
</linearGradient>
</defs>
</svg>
